<svg width="560" height="560" viewBox="0 0 560 560" fill="none" xmlns="http://www.w3.org/2000/svg">
  <defs>
    <radialGradient id="pillFace" cx="0" cy="0" r="1" gradientUnits="userSpaceOnUse" gradientTransform="translate(246 208) rotate(48.5763) scale(277.017)">
      <stop stop-color="#FFFFFF"/>
      <stop offset="0.65" stop-color="#F6F0E7"/>
      <stop offset="1" stop-color="#D8C6B8"/>
    </radialGradient>
    <linearGradient id="shadow" x1="177" y1="334" x2="397" y2="334" gradientUnits="userSpaceOnUse">
      <stop stop-color="#8B6645" stop-opacity="0"/>
      <stop offset="0.5" stop-color="#8B6645" stop-opacity="0.36"/>
      <stop offset="1" stop-color="#8B6645" stop-opacity="0"/>
    </linearGradient>
    <filter id="blur" x="146" y="288" width="282" height="92" filterUnits="userSpaceOnUse" color-interpolation-filters="sRGB">
      <feFlood flood-opacity="0" result="BackgroundImageFix"/>
      <feBlend mode="normal" in="SourceGraphic" in2="BackgroundImageFix" result="shape"/>
      <feGaussianBlur stdDeviation="16" result="effect1_foregroundBlur_0_1"/>
    </filter>
  </defs>
  <g filter="url(#blur)">
    <ellipse cx="287" cy="334" rx="110" ry="14" fill="url(#shadow)"/>
  </g>
  <circle cx="280" cy="246" r="162" fill="url(#pillFace)"/>
  <circle cx="280" cy="246" r="160" stroke="#E8DDD3" stroke-width="4"/>
  <path d="M170 246H390" stroke="#ECE2D8" stroke-width="10" stroke-linecap="round"/>
  <path d="M179 189C216 168.75 247.667 158.625 274 158.625C300.333 158.625 332.667 169.25 371 190.5" stroke="#F7F0E7" stroke-width="18" stroke-linecap="round" opacity="0.85"/>
  <path d="M213 286L248 213H279L244 286H213Z" fill="#D7C8B8"/>
  <path d="M278 286V213H307C326.882 213 343 229.118 343 249C343 268.882 326.882 285 307 285H278V286Z" fill="#D7C8B8"/>
</svg>
